<?xml version="1.0" encoding="UTF-8" standalone="no"?><!DOCTYPE svg PUBLIC "-//W3C//DTD SVG 1.1//EN" "http://www.w3.org/Graphics/SVG/1.1/DTD/svg11.dtd"><svg width="100%" height="100%" viewBox="0 0 20 20" version="1.1" xmlns="http://www.w3.org/2000/svg" xmlns:xlink="http://www.w3.org/1999/xlink" xml:space="preserve" xmlns:serif="http://www.serif.com/" style="fill-rule:evenodd;clip-rule:evenodd;stroke-linejoin:round;stroke-miterlimit:2;"><path d="M23.25,23l0,1.5c0.411,0 0.75,-0.339 0.75,-0.75c0,-0.411 -0.339,-0.75 -0.75,-0.75Zm0,-4l0,1.5c0.411,0 0.75,-0.339 0.75,-0.75c0,-0.411 -0.339,-0.75 -0.75,-0.75Zm-15.25,-3.25c0,0.414 0.336,0.75 0.75,0.75l8.5,0c0.411,0 0.75,-0.339 0.75,-0.75c0,-0.411 -0.339,-0.75 -0.75,-0.75l-8.5,-0c-0.411,-0 -0.75,0.339 -0.75,0.75Zm0,-4c0,0.414 0.336,0.75 0.75,0.75l8.5,0c0.411,0 0.75,-0.339 0.75,-0.75c0,-0.411 -0.339,-0.75 -0.75,-0.75l-8.5,0c-0.411,0 -0.75,0.339 -0.75,0.75Z" style="fill-rule:nonzero;"/><path d="M17.25,15l0,1.5c0.411,0 0.75,-0.339 0.75,-0.75c0,-0.411 -0.339,-0.75 -0.75,-0.75Zm0,-4l0,1.5c0.411,0 0.75,-0.339 0.75,-0.75c0,-0.411 -0.339,-0.75 -0.75,-0.75Zm-15.25,-3.25c0,0.414 0.336,0.75 0.75,0.75l10.5,-0c0.411,-0 0.75,-0.339 0.75,-0.75c0,-0.411 -0.339,-0.75 -0.75,-0.75l-10.5,-0c-0.411,-0 -0.75,0.339 -0.75,0.75Zm0,-4c0,0.414 0.336,0.75 0.75,0.75l10.5,0c0.411,0 0.75,-0.339 0.75,-0.75c0,-0.411 -0.339,-0.75 -0.75,-0.75l-10.5,0c-0.411,0 -0.75,0.339 -0.75,0.75Z" style="fill-rule:nonzero;"/><path d="M4.112,14.793l1.217,1.217c0.054,0.054 0.084,0.127 0.084,0.203c0,0.157 -0.129,0.287 -0.287,0.287c-0.076,0 -0.149,-0.03 -0.203,-0.084l-1.216,-1.217l-1.217,1.217c-0.054,0.054 -0.127,0.084 -0.203,0.084c-0.157,-0 -0.287,-0.13 -0.287,-0.287c-0,-0.076 0.03,-0.149 0.084,-0.203l1.217,-1.217l-1.217,-1.217c-0.052,-0.053 -0.08,-0.125 -0.08,-0.199c-0,-0.157 0.129,-0.287 0.286,-0.287c0.075,0 0.146,0.029 0.2,0.081l1.217,1.217l1.216,-1.217c0.054,-0.054 0.127,-0.084 0.203,-0.084c0.158,-0 0.287,0.129 0.287,0.287c0,0.076 -0.03,0.149 -0.084,0.202l-1.217,1.217Z" style="fill-rule:nonzero;"/></svg>